<svg width="370" height="125" viewBox="0 0 370 125" fill="none" xmlns="http://www.w3.org/2000/svg">
<path d="M0 0H370V115C370 120.523 365.523 125 360 125H9.99999C4.47715 125 0 120.523 0 115L0 0Z" fill="white" fill-opacity="0.06"/>
<path d="M0.5 0.5H369.5V115C369.5 120.247 365.247 124.5 360 124.5H9.99999C4.75329 124.5 0.5 120.247 0.5 115V0.5Z" stroke="url(#paint0_linear_111_5503)" stroke-opacity="0.4"/>
<path d="M0.5 0.5H369.5V115C369.5 120.247 365.247 124.5 360 124.5H9.99999C4.75329 124.5 0.5 120.247 0.5 115V0.5Z" stroke="url(#paint1_linear_111_5503)" stroke-opacity="0.4"/>
<defs>
<linearGradient id="paint0_linear_111_5503" x1="0" y1="0" x2="49.5373" y2="120.246" gradientUnits="userSpaceOnUse">
<stop stop-color="white"/>
<stop offset="1" stop-color="white" stop-opacity="0"/>
</linearGradient>
<linearGradient id="paint1_linear_111_5503" x1="370" y1="128.425" x2="340.891" y2="33.2996" gradientUnits="userSpaceOnUse">
<stop stop-color="white"/>
<stop offset="1" stop-color="white" stop-opacity="0"/>
</linearGradient>
</defs>
</svg>
