<svg width="160" height="46" viewBox="0 0 160 46" fill="none" xmlns="http://www.w3.org/2000/svg">
<path d="M0.32 45H9.68V0.479997H0.32V45ZM39.3669 45.72C52.5669 45.72 62.3469 36.54 62.3469 24C62.3469 11.46 52.5669 2.28 39.3669 2.28C26.1069 2.28 16.3869 11.52 16.3869 24C16.3869 36.48 26.1069 45.72 39.3669 45.72ZM39.3669 37.44C31.8669 37.44 26.2269 31.98 26.2269 24C26.2269 16.02 31.8669 10.56 39.3669 10.56C46.8669 10.56 52.5069 16.02 52.5069 24C52.5069 31.98 46.8669 37.44 39.3669 37.44ZM98.0319 35.64C95.5719 36.96 93.1119 37.44 90.4719 37.44C82.4319 37.44 76.8519 31.86 76.8519 24C76.8519 16.02 82.4319 10.56 90.5919 10.56C94.8519 10.56 98.3919 12.06 101.452 15.3L107.692 9.54C103.612 4.8 97.4919 2.28 90.1119 2.28C76.7319 2.28 67.0119 11.34 67.0119 24C67.0119 36.66 76.7319 45.72 89.9319 45.72C95.9319 45.72 102.292 43.86 106.912 40.38V23.34H98.0319V35.64ZM136.281 45.72C149.481 45.72 159.261 36.54 159.261 24C159.261 11.46 149.481 2.28 136.281 2.28C123.021 2.28 113.301 11.52 113.301 24C113.301 36.48 123.021 45.72 136.281 45.72ZM136.281 37.44C128.781 37.44 123.141 31.98 123.141 24C123.141 16.02 128.781 10.56 136.281 10.56C143.781 10.56 149.421 16.02 149.421 24C149.421 31.98 143.781 37.44 136.281 37.44Z" fill="white"/>
</svg>
