<svg width="71" height="48" viewBox="0 0 71 48" fill="none" xmlns="http://www.w3.org/2000/svg">
<path d="M59.9999 24.6975C59.9999 27.7557 58.1596 29 56.1291 29C53.6928 29 51.9999 27.5284 51.9999 24.597V19H54.1665V24.1113C54.1665 25.6691 54.6129 26.8559 56.1291 26.8559C57.4412 26.8559 57.8333 25.8414 57.8333 24.2405V19H59.9999V24.6975Z" fill="white"/>
<path d="M46.9999 48H-0.00012207V0H46.9999V16.423H44.8211V2.22518H2.17642V45.7748H44.8211V31.4698H46.9999V48Z" fill="white"/>
<path d="M37.3209 29L32.9686 22.999V29H30.9999V19H32.6789L37.0334 25.0273L37.029 19H38.9955L38.9999 29H37.3209Z" fill="white"/>
<path d="M41.9999 19H48.9999V21.1425H46.4645V29H44.5332V21.1425H41.9999V19Z" fill="white"/>
<path d="M9.99988 19H12.1267V23.3568L15.1701 19H17.7218L14.2268 23.615L17.9999 29H15.3035L12.1267 24.2415V29H9.99988V19Z" fill="white"/>
<path d="M23.4988 26.929C25.1077 26.929 25.9424 25.6301 25.9424 24C25.9424 22.2317 24.8656 21.071 23.4988 21.071C22.0966 21.071 21.0574 22.2317 21.0574 24C21.0574 25.6563 22.1446 26.929 23.4988 26.929ZM23.4988 19C26.0759 19 27.9999 20.9185 27.9999 24C27.9999 26.929 26.0759 29 23.4988 29C20.9238 29 18.9999 27.0791 18.9999 24C18.9999 21.195 20.8028 19 23.4988 19Z" fill="white"/>
<path d="M65.202 21.1728V23.3886H65.999C66.8398 23.3886 67.4986 23.0727 67.4986 22.2304C67.4986 21.6729 67.2268 21.1704 66.1672 21.1704C65.8355 21.1704 65.6558 21.1584 65.202 21.1728ZM62.9999 29V19C63.5366 19 65.999 19 66.2754 19C68.9037 19 69.8389 20.3568 69.8389 22.2017C69.8389 24.0586 68.7379 24.8172 68.215 25.09L70.9999 29H68.3301L66.0128 25.5327H65.202V29H62.9999Z" fill="white"/>
</svg>
