<svg width="38" height="28" viewBox="0 0 38 28" fill="none" xmlns="http://www.w3.org/2000/svg">
<path d="M13.6498 11.598C15.0674 12.2843 16.1649 13.2908 16.9422 14.6176C17.7196 15.8987 18.1083 17.4314 18.1083 19.2157C18.1083 21.8693 17.2623 23.9967 15.5704 25.598C13.8785 27.1993 11.7064 28 9.05415 28C6.40193 28 4.22984 27.1993 2.53791 25.598C0.845969 23.9967 0 21.8693 0 19.2157C0 18.0261 0.160048 16.8366 0.480144 15.6471C0.800241 14.4575 1.53189 12.6503 2.67509 10.2255L7.47653 0H17.0794L13.6498 11.598ZM33.5415 11.598C34.9591 12.2843 36.0566 13.2908 36.8339 14.6176C37.6113 15.8987 38 17.4314 38 19.2157C38 21.8693 37.154 23.9967 35.4621 25.598C33.7702 27.1993 31.5981 28 28.9459 28C26.2936 28 24.1215 27.1993 22.4296 25.598C20.7377 23.9967 19.8917 21.8693 19.8917 19.2157C19.8917 18.0261 20.0517 16.8366 20.3718 15.6471C20.6919 14.4575 21.4236 12.6503 22.5668 10.2255L27.3682 0H36.9711L33.5415 11.598Z" fill="white" fill-opacity="0.06"/>
<path d="M13.1703 11.4563L13.05 11.8632L13.4319 12.0481C14.7627 12.6923 15.7848 13.6312 16.5108 14.8704L16.5108 14.8704L16.5148 14.877C17.2363 16.0661 17.6083 17.5053 17.6083 19.2157C17.6083 21.7529 16.8046 23.7415 15.2267 25.2349C13.6406 26.736 11.5976 27.5 9.05415 27.5C6.51067 27.5 4.46768 26.736 2.8816 25.2349C1.30371 23.7415 0.5 21.7529 0.5 19.2157C0.5 18.0716 0.653866 16.9257 0.962969 15.777C1.27069 14.6334 1.98563 12.8604 3.12735 10.4387L3.12768 10.438L7.79413 0.5H16.4102L13.1703 11.4563ZM33.062 11.4563L32.9417 11.8632L33.3236 12.0481C34.6544 12.6923 35.6765 13.6312 36.4025 14.8704L36.4025 14.8704L36.4065 14.877C37.128 16.0661 37.5 17.5053 37.5 19.2157C37.5 21.7529 36.6963 23.7415 35.1184 25.2349C33.5323 26.736 31.4893 27.5 28.9459 27.5C26.4024 27.5 24.3594 26.736 22.7733 25.2349C21.1954 23.7415 20.3917 21.7529 20.3917 19.2157C20.3917 18.0716 20.5456 16.9257 20.8547 15.777C21.1624 14.6334 21.8773 12.8604 23.019 10.4387L23.0194 10.438L27.6858 0.5H36.3019L33.062 11.4563Z" stroke="url(#paint0_linear_94_27)" stroke-opacity="0.4"/>
<path d="M13.1703 11.4563L13.05 11.8632L13.4319 12.0481C14.7627 12.6923 15.7848 13.6312 16.5108 14.8704L16.5108 14.8704L16.5148 14.877C17.2363 16.0661 17.6083 17.5053 17.6083 19.2157C17.6083 21.7529 16.8046 23.7415 15.2267 25.2349C13.6406 26.736 11.5976 27.5 9.05415 27.5C6.51067 27.5 4.46768 26.736 2.8816 25.2349C1.30371 23.7415 0.5 21.7529 0.5 19.2157C0.5 18.0716 0.653866 16.9257 0.962969 15.777C1.27069 14.6334 1.98563 12.8604 3.12735 10.4387L3.12768 10.438L7.79413 0.5H16.4102L13.1703 11.4563ZM33.062 11.4563L32.9417 11.8632L33.3236 12.0481C34.6544 12.6923 35.6765 13.6312 36.4025 14.8704L36.4025 14.8704L36.4065 14.877C37.128 16.0661 37.5 17.5053 37.5 19.2157C37.5 21.7529 36.6963 23.7415 35.1184 25.2349C33.5323 26.736 31.4893 27.5 28.9459 27.5C26.4024 27.5 24.3594 26.736 22.7733 25.2349C21.1954 23.7415 20.3917 21.7529 20.3917 19.2157C20.3917 18.0716 20.5456 16.9257 20.8547 15.777C21.1624 14.6334 21.8773 12.8604 23.019 10.4387L23.0194 10.438L27.6858 0.5H36.3019L33.062 11.4563Z" stroke="url(#paint1_linear_94_27)" stroke-opacity="0.4"/>
<defs>
<linearGradient id="paint0_linear_94_27" x1="0" y1="0" x2="15.6635" y2="17.4326" gradientUnits="userSpaceOnUse">
<stop stop-color="white"/>
<stop offset="1" stop-color="white" stop-opacity="0"/>
</linearGradient>
<linearGradient id="paint1_linear_94_27" x1="38" y1="28.7671" x2="27.2399" y2="12.6453" gradientUnits="userSpaceOnUse">
<stop stop-color="white"/>
<stop offset="1" stop-color="white" stop-opacity="0"/>
</linearGradient>
</defs>
</svg>
