<svg width="730" height="576" viewBox="0 0 730 576" fill="none" xmlns="http://www.w3.org/2000/svg">
<path d="M698.791 153.043C700.692 152.355 702.092 150.586 702.092 148.423C702.092 145.671 699.892 143.509 697.091 143.509C695.991 143.509 694.99 143.902 694.19 144.393L382.205 77.4553V52.8819C382.205 46.7877 377.203 41.873 371.002 41.873C364.8 41.873 359.799 46.7877 359.799 52.8819V72.7372L38.8106 3.73515C38.2105 1.5727 36.31 0 33.9093 0C31.1085 0 28.9079 2.16246 28.9079 4.91468C28.9079 6.97884 30.2083 8.74812 32.0088 9.43618L0 76.2758L1.80049 77.1604L33.4092 11.2055L64.5177 77.1604L66.3182 76.3741L34.9096 9.73106C35.4097 9.63276 35.8098 9.43618 36.3099 9.23959V9.33788L359.799 78.7331V532.751H342.994C339.093 532.751 335.992 535.798 335.992 539.631V554.375H314.986C311.085 554.375 307.984 557.422 307.984 561.256V576H434.019V561.256C434.019 557.422 430.918 554.375 427.017 554.375H406.011V539.631C406.011 535.798 402.91 532.751 399.009 532.751H382.205V83.5495L692.39 150.094C692.89 151.47 693.99 152.552 695.391 153.043L663.682 219.293L665.482 220.177L697.091 154.223L728.2 220.177L730 219.391L698.791 153.043Z" fill="white" fill-opacity="0.07"/>
<path d="M698.621 152.573L698.106 152.76L698.339 153.256L729.329 219.139L728.445 219.525L697.543 154.009L697.095 153.058L696.64 154.006L665.25 219.506L664.346 219.062L695.842 153.259L696.082 152.756L695.556 152.571C694.295 152.129 693.308 151.156 692.86 149.923L692.765 149.663L692.495 149.605L382.31 83.0606L381.705 82.9308V83.5495V532.751V533.251H382.205H399.009C402.643 533.251 405.511 536.082 405.511 539.631V554.375V554.875H406.011H427.017C430.65 554.875 433.519 557.707 433.519 561.256V575.5H308.484V561.256C308.484 557.707 311.353 554.875 314.986 554.875H335.992H336.492V554.375V539.631C336.492 536.082 339.361 533.251 342.994 533.251H359.799H360.299V532.751V78.7331V78.329L359.903 78.2442L36.8099 8.93377V8.50582L36.127 8.77425C35.9942 8.82647 35.8742 8.87579 35.7624 8.92178C35.4156 9.06435 35.1468 9.17487 34.8131 9.24044L34.1839 9.36411L34.4573 9.94422L65.6465 76.1218L64.7627 76.5078L33.8614 10.9922L33.4128 10.041L32.9583 10.9894L1.56781 76.489L0.664751 76.0453L32.4597 9.65214L32.6941 9.1628L32.1873 8.96912C30.5746 8.35285 29.4079 6.76545 29.4079 4.91468C29.4079 2.44681 31.3764 0.5 33.9093 0.5C36.0748 0.5 37.7859 1.91261 38.3288 3.86887L38.4098 4.1604L38.7056 4.22399L359.694 73.226L360.299 73.3561V72.7372V52.8819C360.299 47.0721 365.068 42.373 371.002 42.373C376.935 42.373 381.705 47.0721 381.705 52.8819V77.4553V77.8594L382.1 77.9442L694.085 144.882L694.281 144.924L694.452 144.819C695.199 144.36 696.11 144.009 697.091 144.009C699.624 144.009 701.592 145.955 701.592 148.423C701.592 150.357 700.341 151.95 698.621 152.573Z" stroke="url(#paint0_linear_86_196)" stroke-opacity="0.4"/>
<defs>
<linearGradient id="paint0_linear_86_196" x1="357.5" y1="654.635" x2="406.937" y2="105.625" gradientUnits="userSpaceOnUse">
<stop stop-color="white"/>
<stop offset="1" stop-color="white" stop-opacity="0"/>
</linearGradient>
</defs>
</svg>
